<?xml version="1.0" encoding="UTF-8"?>
<svg id="Layer_1" data-name="Layer 1" xmlns="http://www.w3.org/2000/svg" viewBox="0 0 250 250">
  <defs>
    <style>
      .cls-1 {
        fill: #fff;
      }
    </style>
  </defs>
  <path class="cls-1" d="M125.22,4.99C59.07,4.8,5.01,58.85,5.03,125.17c.02,66.26,53.98,119.95,120.46,119.84,66.14-.11,119.55-53.89,119.48-120.31-.07-65.99-53.6-119.5-119.75-119.7Zm76.54,154.65c-.24,24.14-18.18,41.78-42.35,41.96-11.61,.09-23.23,.02-34.84,.02-10.95,0-21.91,.02-32.86,0-25.59-.05-43.36-17.82-43.35-43.31,.01-22.7,0-45.4,0-68.1,0-23.14,18.23-41.62,41.33-41.7,23.49-.08,46.98-.06,70.47,0,22.95,.06,41.41,18.12,41.62,41.07,.22,23.36,.2,46.72-.03,70.07Z"/>
  <path class="cls-1" d="M158.86,61.89c-22.56-.06-45.12-.05-67.67,.02-17.02,.05-29.29,12.14-29.38,29.1-.12,22.69-.12,45.38,0,68.07,.09,16.81,12.24,28.91,29.06,28.99,22.82,.11,45.64,.09,68.47,0,16.77-.06,28.92-12.36,28.94-29.08,.01-11.34,0-22.69,0-34.03,0-11.21,.01-22.43,0-33.64-.03-17.22-12.14-29.39-29.41-29.44Zm-33.62,104.89c-23.1,.1-41.79-18.53-41.82-41.7-.04-22.85,18.61-41.76,41.31-41.9,22.89-.14,42.16,18.66,42.45,41.4,.29,22.94-18.75,42.1-41.94,42.2Zm40.71-73.87c-4.83-.09-8.71-4.04-8.72-8.87,0-4.95,4.12-8.96,9.13-8.87,4.69,.09,8.78,4.22,8.79,8.88,0,4.84-4.26,8.95-9.19,8.86Z"/>
  <path class="cls-1" d="M124.79,97.74c-14.9,.15-27.2,12.51-27.15,27.29,.06,15.38,12.41,27.68,27.68,27.57,15.05-.11,27.2-12.51,27.13-27.7-.06-15-12.6-27.31-27.67-27.15Z"/>
</svg>