<?xml version="1.0" encoding="UTF-8"?>
<svg id="Layer_1" data-name="Layer 1" xmlns="http://www.w3.org/2000/svg" viewBox="0 0 250 250">
  <defs>
    <style>
      .cls-1 {
        fill: #fff;
      }
    </style>
  </defs>
  <path class="cls-1" d="M124.33,5C57.8,5.48,4.78,59.2,5,125.91c.22,65.85,54.26,119.35,120.31,119.09,66.21-.26,120.01-54.32,119.69-120.26-.32-66.37-54.58-120.21-120.67-119.74Zm40.72,68.19c-3.87,0-7.79-.19-11.68,.06-3.12,.2-6.36,.49-9.29,1.5-4.97,1.7-8.41,5.33-8.64,10.75-.33,7.75-.08,15.53-.08,23.87h28.98c-1.68,10.61-3.26,20.56-4.88,30.82h-24.08v75.23h-32.9v-75.12h-27.47v-30.72h27.03c.11-1.72,.27-3.11,.29-4.49,.11-8.05-.22-16.12,.34-24.14,1.21-17.27,11.89-30.57,26.94-33.56,4.46-.89,9.17-.57,13.76-.63,7.11-.09,14.21-.02,21.68-.02v26.45Z"/>
</svg>