<?xml version="1.0" encoding="UTF-8"?>
<svg id="Layer_1" data-name="Layer 1" xmlns="http://www.w3.org/2000/svg" viewBox="0 0 250 250">
  <defs>
    <style>
      .cls-1 {
        fill: #fff;
      }
    </style>
  </defs>
  <path class="cls-1" d="M117.98,5.24c4.68,0,9.36,0,14.04,0,1.69,.19,3.38,.39,5.07,.58,25.6,2.87,48.22,12.6,67.43,29.79,20.6,18.43,33.47,41.31,38.36,68.57,.82,4.57,1.27,9.21,1.89,13.81v14.04c-.15,.83-.31,1.66-.43,2.5-.73,5.08-1.14,10.23-2.23,15.23-6.27,28.93-21.19,52.54-44.69,70.46-25.01,19.07-53.45,26.96-84.69,23.89-25.3-2.49-47.69-12.3-66.7-29.23C20.63,192.25,7.02,163.78,5.38,129.81c-1.05-21.63,3.55-42.21,14.04-61.16C38.07,34.96,66.42,14.31,104.37,7.11c4.5-.85,9.08-1.25,13.62-1.87ZM46.73,87.37c-.02,6.21,5.16,10,11.85,8.46,14.47-3.34,29.09-5.34,43.96-5.63,17.55-.35,34.84,1.49,51.9,5.61,14.44,3.49,28.25,8.68,41.61,15.13,5.23,2.52,9.87,.6,12.52-4.84,2.18-4.48,.3-9.63-4.46-11.98-26.45-13.06-54.4-20.55-83.83-22.39-22.16-1.38-44.05,.68-65.67,5.73-4.91,1.15-7.86,4.85-7.87,9.91Zm60.78,31.17c-16.11,.11-30.96,2.05-45.66,5.51-4.86,1.14-7.13,3.97-8.03,8.48-1.44,7.16,3.12,11.64,10.21,9.87,12.36-3.09,24.85-5.01,37.61-5.37,23.3-.66,45.75,3.2,67.29,12.14,4.45,1.85,8.78,3.99,13.17,5.99,3.71,1.69,5.19,1.36,7.61-1.85,.94-1.24,1.79-2.55,2.55-3.91,2.44-4.42,1.1-8.63-3.44-10.95-25.85-13.21-53.32-19.72-81.3-19.91Zm.61,60.86c15.75,.09,32.78,3.37,49.04,10.3,4.15,1.77,8.13,3.92,12.23,5.81,4.36,2,8.78-.48,8.89-5.17,.06-2.43-.4-4.95-1.07-7.31-.34-1.2-1.49-2.47-2.62-3.08-18.33-9.96-37.94-15.63-58.75-17.01-17.11-1.14-33.91,.85-50.33,5.75-1.39,.41-3.04,1.66-3.57,2.93-1.03,2.45-1.73,5.18-1.88,7.83-.2,3.64,2.91,6.22,6.58,5.9,1.15-.1,2.29-.43,3.41-.76,11.82-3.45,23.9-5.06,38.08-5.19Z"/>
</svg>