<?xml version="1.0" encoding="UTF-8"?>
<svg id="Layer_1" data-name="Layer 1" xmlns="http://www.w3.org/2000/svg" viewBox="0 0 250 250">
  <defs>
    <style>
      .cls-1 {
        fill: #fff;
      }
    </style>
  </defs>
  <path class="cls-1" d="M124.63,4.82C57.98,5.03,4.75,58.85,5,125.77c.24,65.47,54.16,119.13,119.61,119.04,66.56-.09,120.62-53.98,120.39-120.01-.24-66.49-54.11-120.2-120.37-119.98Zm72.53,150.1c-1.78,12.7-7,17.97-19.74,19.37-12.57,1.38-25.24,1.86-37.88,2.55-4.87,.27-9.76,.04-14.64,.04-.02,.29-.03,.59-.05,.88-17.1-1.09-34.24-1.77-51.29-3.38-14.07-1.33-19.67-7.55-21.12-21.61-1.93-18.69-1.84-37.41-.05-56.1,1.35-14.19,7.51-20.53,21.76-22.06,23.39-2.52,46.86-3.08,70.35-2.03,11.71,.52,23.46,1.25,35.06,2.81,10.67,1.43,15.76,6.92,17.38,17.63,3.11,20.6,3.1,41.29,.21,61.91Z"/>
  <path class="cls-1" d="M110.49,146.87c12.98-7.58,25.27-14.76,38.19-22.29-13.11-7.52-25.39-14.56-38.19-21.9v44.2Z"/>
</svg>