<?xml version="1.0" encoding="UTF-8"?>
<svg id="Layer_1" data-name="Layer 1" xmlns="http://www.w3.org/2000/svg" viewBox="0 0 94.68 83.94">
  <path d="M73.33,68.86c.36,2.93-1.03,5.3-2.29,7.72-1.03,1.98-2.86,3.03-5.07,2.72-.46-.07-.92-.13-1.34,.17-.7,.5-1.4,.86-2.25,.32-.25-.16-.49,0-.6,.26-.81,1.77-2.57,2.04-4.14,2.5-1.83,.53-3.72,.86-5.58,1.26-.24,.05-.51,.08-.73,0-.58-.18-1.11-.71-1.72,.03-.17,.2-.59-.09-.87-.26-2.63-1.63-5.5-2.8-8.21-4.28-.08-.04-.2-.02-.39,.11,.99,.6,1.98,1.19,2.98,1.78,.85,.51,1.71,1.01,2.57,1.5,.35,.2,.62,.43,.39,.84-.26,.44-.66,.35-1.02,.12-.99-.62-1.93-1.34-2.97-1.87-2.08-1.07-4.12-2.21-6.16-3.36-.63-.35-1.34-.6-1.03-1.57,.09-.28-.14-.46-.4-.54-.22-.06-.43-.02-.56,.19-.07,.12-.09,.28-.18,.38-.57,.65-.99,1.65-2.16,.9-.16-.1-.48,.01-.72,.06-.17,.04-.37,.23-.48,.19-1.41-.62-2.89,.35-4.29-.2-.16-.06-.39-.15-.51-.09-1.24,.62-2.42-.17-3.63-.12-.61,.02-1.21-.01-1.76,.29-.34,.19-.68,.25-1.02,.06-.44-.24-.71-.09-1.13,.17-.71,.44-1.82,.01-2.35,.99-1.11-.7-2.62,.27-3.65-.93-.25-.29-.78-.63-1.13,.2-.25,.61-.84,.41-1.17-.09-.44-.68,.2-2.07,.99-2.13,.98-.07,1.73-.65,2.57-.96,1.55-.56,2.92-1.62,4.61-1.78,.43-.04,.56-.24,.55-.61-.01-.5,.07-1.03-.08-1.49-.49-1.49-.33-2.92,.03-4.41,.17-.71,.47-1.23,1.12-1.41,.68-.19,1.23,.23,1.63,.76,.94,1.23,1.54,2.65,1.97,4.12,.6,2.05,.73,2.3,2.86,2.12,3.45-.29,6.94-.38,10.32-1.33,.84-.24,1.73-.32,2.6-.5,1.75-.36,2.71-1.22,3.19-3.22-.55,.34-1,.65-1.48,.9-1.59,.85-3.32,.72-5.01,.53-1.16-.13-1.42-1.25-1.52-2.19-.14-1.23-.21-2.49,.2-3.7,.17-.5,.09-.94-.14-1.43-.73-1.5-.86-3.21-1.55-4.74-.33-.73,.21-1.32,.9-1.58,1.73-.65,3.46-1.29,5.01-2.34,.44-.3,.95-.22,1.43,.02,.88,.44,1.62,1.02,2.14,1.87,.11,.18,.22,.41,.46,.41,.25,0,.37-.24,.39-.44,.14-1.51,.52-3.02,0-4.54-.49-1.44-1.58-2.15-2.99-2.4-.76-.13-1.41-.47-2.09-.77-.23-.1-.55-.22-.61-.4-.72-2.11-2.73-1.65-4.12-1.72-3.76-.2-7.51-.49-11.28-.61-4.42-.14-8.87-.52-13.03-2.3-1.4-.6-2.89-1.04-4.2-1.8-2.56-1.48-4.03-3.76-4.49-6.73-.46-2.96,1.04-4.88,3.04-6.81,3.55-3.42,7.96-5.26,12.28-7.33,1.34-.65,2.63-1.39,3.86-2.24,2.03-1.4,4.34-2.26,6.55-3.33,2.37-1.15,4.59-2.56,6.69-4.15,.65-.49,1.31-.97,2-1.41,.96-.62,1.4-1.75,2.21-2.55,2.13-2.13,4.56-3.75,7.44-4.58,1.73-.5,3.51-.92,5.31-1.08,2.6-.23,5.01,.6,7.3,1.61,3.22,1.41,6.05,3.44,8.15,6.35,1.23,1.71,2.3,3.5,2.68,5.62,.09,.47,.27,.81,.81,.8,1.42-.01,2.67,.63,3.72,1.42,1.15,.87,1.97,2.14,2.61,3.44,1.4,2.84,2.15,5.81,2.06,9.03-.1,3.62-1.47,6.3-4.86,7.78-.9,.39-1.35,.84-1.02,1.93,.27,.89-.23,1.98,.38,2.8,.94,1.27,.94,2.75,1.31,4.18,1.06,4.03,1.87,8.15,3.41,12.06,.78,1.98,1.4,4.01,2.46,5.87,2.48,4.37,5.91,7.6,10.82,9.07,.83,.25,1.7,.1,2.55,.13,.46,.02,.93,0,1.39,.02,.62,.03,1.12,.3,1.35,.88,.23,.6-.01,1.12-.51,1.5-.37,.29-.59,.49-.24,1.03,.6,.91,.27,1.48-.8,1.75-.75,.19-1.48,.03-2.22,0-.3-.01-.7-.12-.86,.24-.14,.33,.23,.48,.41,.67,.45,.47,.77,1.01,1.03,1.61,.41,.95,.06,1.61-.98,1.71-.56,.05-1.16,.09-1.7-.03-1.86-.44-3.7-.17-5.57-.08-1.01,.05-2.31,.56-3.27-.44-.15-.16-.38-.16-.6-.09-.81,.28-1.58,.66-2.51,.21-.41-.2-.94,.58-1.55,.07-.33-.28-.79-.46-.65-.97,.14-.5,.62-.4,1-.37,1.47,.13,2.44-.39,2.91-1.89,.32-1.01,1.23-1.64,2-2.32,.54-.48,.49-.88-.13-1.12-2.73-1.05-4.75-2.93-6.36-5.31-.1-.15-.17-.32-.26-.48-.13,.04-.26,.08-.4,.12Zm-34.7-23.27c.75,.59,1.35,.83,2.03,.95,1.96,.36,4.02,2.33,4.23,4.15,.25,2.26-.18,4.47-.83,6.62-.27,.89-.59,1.64-.22,2.62,.39,1.02,2.07,1.72,2.95,1.05,1.57-1.21,2.21-1.09,3.12,.67,.24,.47,.52,.77,1.06,.66,.89-.18,1.69-.28,2.48,.46,.76,.71,1.61-.61,2.47-.12,.03,.02,.07,.02,.1,.04,.37,.19,.69,.1,.98-.17,.92-.84,1.99-.82,3.1-.51,.34,.1,.65,.31,.99,0,.88-.79,1.82-.59,2.64,0,.7,.51,1.1,.34,1.58-.24,.5-.61,1.21-.85,1.99-.88,.3-.01,.68,.15,.85-.26,.15-.38-.09-.67-.27-.98-.23-.38-.6-.44-.98-.55-.55-.16-.82-.48-.27-.98,.15-.13,.45-.17,.31-.45-.11-.22-.36-.2-.57-.2-.65,.01-1.17-.26-1.63-.68-.22-.2-.37-.45-.25-.76,.12-.31,.41-.38,.7-.38,.25,0,.51,.02,.73,.11,.48,.18,.83,.22,.82-.46,0-.28,.02-.63,.4-.65,.38-.03,.4,.34,.49,.6,.35,.93,.69,1.86,1.03,2.79,.11,.31,.31,.47,.64,.45,.22-.01,.43-.08,.53-.3,.14-.29-.12-.45-.26-.64-1.13-1.53-1.14-2.22,0-3.72,.2-.26,.46-.37,.05-.74-1.08-.97-1.33-2.35-.66-3.63,.33-.62,.28-1.1-.03-1.69-.56-1.05-1.04-2.12-.37-3.33,.23-.42,0-.83-.26-1.19-.68-.96-.66-2.01-.33-3.06,.6-1.92-.08-2.97-2.05-3.02-2.21-.06-4.93-1.62-5.06-4.14-.04-.7-.28-1.45-.46-2.17-.99-3.87-.55-7.68,1.18-11.17,.91-1.82,.84-3.39,.24-5.07-1.58-4.37-4.94-7.16-8.84-9.27-2.14-1.16-4.65-1.04-7.07-1.1-2.41-.06-4.5,.74-6.34,2.11-1.89,1.4-3.56,3.06-5.64,4.27-2.51,1.46-4.8,3.32-7.42,4.6-2.26,1.1-4.62,2-6.75,3.38-1.28,.83-2.7,1.43-4.05,2.13-4.28,2.21-8.8,4.03-12.24,7.61-.82,.85-1.68,1.68-2,2.84-.63,2.32,1.62,6.49,3.21,7.24,3.31,1.56,6.69,2.91,10.29,3.68,4.27,.92,8.65,.36,12.95,.98,1.99,.29,4.05-.11,6.07,.21,4.76,.75,9.39,.33,13.87-1.54,.5-.21,1.15-.9,1.6-.17,.48,.79-.42,1.13-.89,1.57-.08,.07-.17,.13-.27,.17-1.52,.71-3.13,1.12-4.74,1.56-1.54,.43-3.14,.42-4.91,.72Zm8.68,18.06c-.48,.6-.97,1.1-1.56,1.55-1.12,.86-2.41,1.59-2.4,3.41,0,1.06-.96,1.94-1.41,2.95-.17,.38-.57,.42-.92,.39-1.27-.12-2.46,.33-3.66,.57-4.5,.9-9.03,1.41-13.62,1.38-.97,0-1.34-.42-1.46-1.39-.2-1.58-.63-3.12-1.53-4.48-.2-.3-.32-.86-.78-.75-.42,.11-.52,.63-.61,1.05-.04,.17-.04,.36-.02,.53,.14,1.38,.24,2.76,.45,4.13,.24,1.61,1.16,2.44,2.78,2.55,1.6,.11,3.21,0,4.76-.38,1.66-.41,3.34-.62,5.03-.62,5.09,0,10.2-.35,15.24,.91,1.53,.38,3.04,.92,4.65,1.01,1.21,.07,2.28-.46,3.45-.53,.55-.03,.49-.49,.45-.9-.12-1.16-.19-2.33-.34-3.49-.24-1.77-.21-3.54-.22-5.32,0-.2,.07-.47-.18-.56-.23-.09-.41,.11-.54,.26-.33,.37-.62,.77-.95,1.14-.8,.92-1.87,.76-2.33-.36-.16-.39-.25-.8-.4-1.27-.95,.91-1.62,2.52-3.26,1.73-1.6-.77-.94-2.19-.64-3.5Zm18.88,14.27c1.7,.01,2.67-1.01,3.52-2.34,1.38-2.15,2.15-4.46,2.06-7.02-.04-1.22,.07-2.49-.55-3.63-.15-.28-.3-.64-.71-.43-.91,.45-1.65,.14-2.36-.43-.73-.59-1-.29-1,.51,0,.78-.14,1.55-.81,1.99-.74,.48-.74,.93-.35,1.66,.72,1.35,1.27,2.78,1.16,4.37-.03,.42-.16,.8-.66,.81-.53,.01-.59-.39-.64-.8-.46-3.98-2.65-6.89-5.83-9.12-.98-.69-2.09-.31-2.53,.79-.34,.86-.56,1.73-.56,2.68,0,1.5,.58,2.93,.45,4.44-.13,1.61,.14,3.19,.66,4.72,.16,.47,.38,.91,.39,1.43,.01,.69-.15,1.1-.94,1.28-1.8,.41-3.55,1.03-5.02,2.2-.3,.24-.87,.51-.62,.97,.21,.4,.78,.17,1.19,.17,.1,0,.21-.04,.31-.07,1.67-.45,3.34-.91,5.01-1.34,1.39-.36,2.03-1.01,1.87-2.41-.2-1.71-.02-3.41-.23-5.11-.05-.42-.19-.91,.34-1.1,.55-.2,1,.09,1.24,.57,.29,.6,.52,1.24,.72,1.88,.68,2.16,2.01,3.31,3.91,3.33Zm9.28-49.98c-.04-1.58-.13-2.72-.35-3.89-.5-2.65-1.84-4.81-3.51-6.81-.67-.8-2.25-1.29-2.75-.86-.64,.55-1.25,1.12-1.73,1.86-2.43,3.78-2.9,7.84-1.9,12.15,.4,1.73,1.19,3.25,2.32,4.61,.41,.49,.9,.98,1.64,.75,1.36-.43,2.65-1.03,3.79-1.89,2.1-1.59,2.68-3.82,2.5-5.92Zm-2.03,25.62c-.35,.44-.58,.75-.82,1.04-1.14,1.35-1.13,1.45,.47,2.33,.12,.07,.26,.12,.38,.19,.63,.39,.8,.91,.58,1.64-.3,1.03-1.14,1.38-1.96,1.81-.43,.22-1.02,.25-1.27,.73-.38,.72,.66,.59,.71,1.09,.01,.13,.16,.23,.22,.36,.6,1.29,1.39,2.47,2.12,3.69,2.1,3.47,4.68,6.34,8.81,7.39,.38,.1,.77,.28,.8,.75,.03,.5-.35,.77-.7,1-1.02,.67-1.87,1.52-2.68,2.42-.12,.13-.27,.3-.14,.47,.18,.25,.37,.05,.55-.06,.69-.44,1.35-.91,2.07-1.3,1.59-.87,2.51-.86,3.54,.3,.91,1.03,2.24,1.52,3.07,2.61,.14,.18,.37,.26,.56,.1,.23-.19,.08-.4-.06-.55-.62-.69-1.03-1.55-1.75-2.14-.29-.24-.75-.36-.53-.89,.2-.47,.59-.57,1.05-.57,.99,0,1.99,0,2.98,0-.6-.12-1.08-.53-1.68-.64-.54-.1-.98-.43-.82-1.02,.15-.57,.66-.5,1.15-.39,.85,.18,1.71,.26,2.7-.47-1.26,0-2.25,0-3.24,0-.68,0-1.33-.07-1.98-.34-5.76-2.4-9.47-6.73-11.66-12.46-.87-2.28-1.61-4.61-2.47-7.1ZM43.46,2.92c.77,.21,1.37-.33,2.09-.36,2.77-.13,5.44,.28,7.96,1.47,5.12,2.4,8.73,6.13,10.21,11.71,.14,.52,.3,.55,.72,.33,2.04-1.07,2.09-1.18,1.4-3.4-.08-.27-.2-.53-.32-.78-1.65-3.3-4.11-5.8-7.27-7.71-4.75-2.87-9.62-3.41-14.78-1.24Zm22.91,13.63c-1.36,.96-2.71,2.04-3.45,3.47-1.98,3.85-2.07,7.97-1.04,12.1,.46,1.86,1.39,3.42,3.61,3.62,.21,.02,.43,.13,.59-.06,.17-.21,0-.39-.1-.58-.12-.22-.24-.44-.36-.65-2.61-4.69-2.95-9.5-.95-14.51,.47-1.18,1.3-2.15,1.7-3.39ZM34.2,57.36c.44,1.1,.57,2.47,1.23,3.65,.37,.65,.76,.42,1.17-.02,.85-.91,1.74-1.77,3.08-1.91,.53-.05,.35-.39,.22-.7-.41-1.01-.99-1.95-1.22-3.04-.11-.51-.54-.42-.86-.25-1,.53-2.08,.88-3.13,1.29-.38,.15-.57,.4-.5,.97Zm7.22,8.19c-.52-.2-.91,.07-1.29,.29-.41,.24-.85,.53-1.23,.04-.35-.45-.04-.86,.27-1.23,.32-.39,.72-.75,.84-1.43-.61,.25-1.11,.41-1.57,.66-.42,.22-.81,.52-1.28,.23-.53-.32-.24-.84-.11-1.51-.55,.62-1.4,.51-1.46,1.29-.08,.99-.15,1.99,.08,2.97,.16,.69,.61,1.04,1.32,.96,.95-.1,1.9-.2,2.8-.59,.24-.1,.52-.21,.51-.47-.03-.79,.52-.99,1.12-1.21Zm-1.3-10.51c.88,1.91,1.53,3.89,2.14,5.88,.29,.93,.87,1.81,.57,2.85-.07,.25-.14,.5,.12,.67,.23,.16,.5,.08,.71-.03,.33-.18,.08-.45,.02-.66-.68-2.19-1.3-4.41-2.09-6.56-.29-.78-.69-1.61-1.46-2.15Z"/>
  <path d="M41.85,83.81c-.33-.24-.69-.46-1.01-.73-1.31-1.13-2.95-1.65-4.46-2.41-.79-.4-1.53-.87-2.38-1.15-.35-.11-.81-.37-.6-.84,.2-.44,.68-.34,1.03-.17,2.35,1.13,4.79,2.09,6.98,3.54,.34,.23,.68,.55,.88,.9,.2,.35,.17,.77-.44,.85Z"/>
  <path d="M84.95,9.13c0,.32-.22,.52-.39,.73-1.04,1.31-2.02,2.66-2.93,4.06-.28,.43-.62,1-1.26,.58-.63-.41-.3-.97,.01-1.39,1.07-1.45,2.04-2.99,3.28-4.32,.25-.27,.55-.49,.94-.28,.23,.12,.34,.35,.36,.62Z"/>
  <path d="M39.41,83.51c-.24,.5-.63,.51-.93,.32-2.28-1.38-4.69-2.51-7.03-3.78-.25-.14-.38-.34-.29-.61,.13-.36,.41-.28,.71-.24,.98,.14,1.75,.76,2.62,1.14,1.52,.67,2.98,1.48,4.32,2.48,.24,.18,.41,.47,.59,.69Z"/>
  <path d="M30.06,80.11c1.94,.69,3.89,1.41,5.29,3.11,.11,.14,.25,.28,.13,.47-.13,.2-.35,.22-.57,.19-.1-.01-.22-.04-.3-.1-1.41-1.24-3.19-1.83-4.81-2.69-.28-.15-.45-.36-.33-.69,.09-.24,.31-.25,.59-.28Z"/>
  <path d="M86.32,34.53c-.04,.45-.29,.7-.78,.57-1.55-.41-2.96-1.17-4.38-1.89-.32-.16-.41-.5-.27-.83,.16-.38,.5-.38,.81-.25,1.4,.59,2.79,1.21,4.18,1.81,.25,.11,.41,.27,.43,.58Z"/>
  <path d="M83.54,23.93c-.63-.02-1.11-.03-1.18-.59-.06-.5,.39-.67,.75-.75,1.07-.25,2.16-.34,3.26-.29,.3,.01,.69,.09,.71,.5,.02,.37-.28,.6-.59,.66-1.04,.2-2.09,.34-2.95,.47Z"/>
  <path d="M54.52,26.98c-.06,.62-.16,1.08-.15,1.53,.01,.56-.14,.96-.75,.89-.6-.06-.8-.5-.75-1.08,.04-.42,.66-.96,.11-1.22-.61-.29-.77,.56-1.15,.87-.36,.3-.5,1.14-1.2,.59-.55-.43-.37-1.02-.02-1.53,.24-.35,.48-.7,.74-1.04,.54-.69,1.19-1.16,2.11-.81,.89,.34,.74,1.28,1.06,1.79Z"/>
  <path d="M39.81,22.1c-.07,.51-.14,1.14-.24,1.77-.05,.35-.23,.61-.62,.6-.45,0-.61-.32-.63-.7-.02-.28,.03-.57,.01-.85-.02-.32,.36-.77-.1-.93-.35-.12-.56,.36-.81,.59-.41,.37-.68,1.26-1.39,.7-.74-.59-.18-1.29,.21-1.88,.32-.49,.78-.82,1.33-1.02,1.37-.48,2.23,.13,2.25,1.71Z"/>
  <path d="M36.35,27.54c-.32,0-.64-.02-.91-.23-.23-.18-.45-.39-.36-.71,.08-.27,.35-.34,.6-.34,.58,0,1.11-.1,1.59-.46,.23-.18,.55-.2,.78,.04,.27,.29,.12,.6-.05,.87-.26,.42-1.07,.8-1.66,.82Z"/>
  <path d="M72.44,26.83c0,.76-.87,1.57-1.62,1.52-.73-.04-1.53-.92-1.53-1.67,0-.81,.68-1.46,1.51-1.46,.9,0,1.65,.74,1.64,1.6Z"/>
</svg>